<?xml version="1.0" encoding="utf-8"?>
<!-- Generator: Adobe Illustrator 27.2.0, SVG Export Plug-In . SVG Version: 6.00 Build 0)  -->
<svg version="1.1" id="Layer_1" xmlns="http://www.w3.org/2000/svg" xmlns:xlink="http://www.w3.org/1999/xlink" x="0px" y="0px"
	 viewBox="0 0 83.3 54.2" style="enable-background:new 0 0 83.3 54.2;" xml:space="preserve">
<path d="M52.1,24.1l6.9-6.9c0.8-0.8,2.1-0.8,2.9,0c0.8,0.8,0.8,2.1,0,2.9L55,27.1l6.9,6.9c0.8,0.8,0.8,2.1,0,2.9
	c-0.8,0.8-2.1,0.8-2.9,0L52.1,30l-6.9,6.9c-0.8,0.8-2.1,0.8-2.9,0c-0.8-0.8-0.8-2.1,0-2.9l6.9-6.9l-6.9-6.9c-0.8-0.8-0.8-2.1,0-2.9
	c0.8-0.8,2.1-0.8,2.9,0L52.1,24.1z M81.3,54.2H27.1c-0.6,0-1.1-0.2-1.5-0.6l-25-25c-0.8-0.8-0.8-2.1,0-2.9l25-25
	C26,0.2,26.5,0,27.1,0h54.2c1.1,0,2.1,0.9,2.1,2.1v50C83.3,53.2,82.4,54.2,81.3,54.2L81.3,54.2z M79.2,50V4.2H27.9L5,27.1L27.9,50
	H79.2z"/>
</svg>
